<svg width="65" height="57" viewBox="0 0 65 57" fill="none" xmlns="http://www.w3.org/2000/svg">
<rect width="65" height="57" fill="white"/>
<path d="M2.70831 2.375H13.5416L20.8 34.1763C21.0476 35.2697 21.726 36.2519 22.7163 36.951C23.7065 37.65 24.9456 38.0214 26.2166 38H52.5416C53.8127 38.0214 55.0518 37.65 56.042 36.951C57.0323 36.2519 57.7107 35.2697 57.9583 34.1763L62.2916 14.25H16.25M27.0833 49.875C27.0833 51.1867 25.8708 52.25 24.375 52.25C22.8792 52.25 21.6666 51.1867 21.6666 49.875C21.6666 48.5633 22.8792 47.5 24.375 47.5C25.8708 47.5 27.0833 48.5633 27.0833 49.875ZM56.875 49.875C56.875 51.1867 55.6624 52.25 54.1666 52.25C52.6709 52.25 51.4583 51.1867 51.4583 49.875C51.4583 48.5633 52.6709 47.5 54.1666 47.5C55.6624 47.5 56.875 48.5633 56.875 49.875Z" stroke="black" stroke-width="4" stroke-linecap="round" stroke-linejoin="round"/>
</svg>
