<svg width="74" height="65" viewBox="0 0 74 65" fill="none" xmlns="http://www.w3.org/2000/svg">
<path fill-rule="evenodd" clip-rule="evenodd" d="M7.4 32.5C7.40053 27.4965 9.0447 22.5993 12.1352 18.3962C15.2257 14.1931 19.6313 10.8626 24.8233 8.80429C30.0153 6.74597 35.7732 6.04729 41.4061 6.79209C47.039 7.53689 52.3075 9.69353 56.5796 13.0032C60.8517 16.3129 63.9458 20.6351 65.4906 25.4511C67.0355 30.2671 66.9655 35.3724 65.2891 40.1543C63.6126 44.9362 60.4009 49.1917 56.0394 52.4101C51.6778 55.6285 46.3517 57.6731 40.7 58.2985V39H48.1C49.0813 39 50.0224 38.6576 50.7163 38.0481C51.4102 37.4386 51.8 36.612 51.8 35.75C51.8 34.888 51.4102 34.0614 50.7163 33.4519C50.0224 32.8424 49.0813 32.5 48.1 32.5H40.7V26C40.7 25.138 41.0898 24.3114 41.7837 23.7019C42.4776 23.0924 43.4187 22.75 44.4 22.75H46.25C47.2313 22.75 48.1724 22.4076 48.8663 21.7981C49.5602 21.1886 49.95 20.362 49.95 19.5C49.95 18.638 49.5602 17.8114 48.8663 17.2019C48.1724 16.5924 47.2313 16.25 46.25 16.25H44.4C41.4561 16.25 38.6328 17.2772 36.5511 19.1057C34.4695 20.9342 33.3 23.4141 33.3 26V32.5H25.9C24.9187 32.5 23.9776 32.8424 23.2837 33.4519C22.5898 34.0614 22.2 34.888 22.2 35.75C22.2 36.612 22.5898 37.4386 23.2837 38.0481C23.9776 38.6576 24.9187 39 25.9 39H33.3V58.2985C26.1465 57.5069 19.5679 54.449 14.7991 49.6989C10.0303 44.9488 7.39933 38.8332 7.4 32.5ZM37 65C57.4351 65 74 50.4497 74 32.5C74 14.5503 57.4351 0 37 0C16.5649 0 0 14.5503 0 32.5C0 50.4497 16.5649 65 37 65Z" fill="black"/>
</svg>
