<svg width="74" height="63" viewBox="0 0 74 63" fill="none" xmlns="http://www.w3.org/2000/svg">
<g clip-path="url(#clip0_8_3184)">
<path d="M37 6.08775C46.879 6.08775 48.0507 6.11875 51.9542 6.26858C61.9812 6.65092 66.6647 10.637 67.1211 18.976C67.2999 22.2439 67.3338 23.2256 67.3338 31.5026C67.3338 39.7822 67.2968 40.7612 67.1211 44.0292C66.6617 52.3604 61.9904 56.3542 51.9542 56.7366C48.0507 56.8864 46.8852 56.9174 37 56.9174C27.121 56.9174 25.9493 56.8864 22.0489 56.7366C11.9972 56.3517 7.33833 52.3475 6.882 44.0266C6.70317 40.7587 6.66617 39.7796 6.66617 31.5C6.66617 23.223 6.70625 22.2439 6.882 18.9734C7.34142 10.637 12.0127 6.64833 22.0489 6.266C25.9524 6.11875 27.121 6.08775 37 6.08775ZM37 0.5C26.9514 0.5 25.6934 0.536167 21.7467 0.686C8.30958 1.20267 0.84175 7.44917 0.225083 18.7177C0.0431667 22.0269 0 23.0809 0 31.5C0 39.9191 0.0431667 40.9757 0.222 44.2823C0.838667 55.5405 8.29417 61.7973 21.7437 62.314C25.6934 62.4638 26.9514 62.5 37 62.5C47.0486 62.5 48.3097 62.4638 52.2563 62.314C65.6812 61.7973 73.1675 55.5508 73.7749 44.2823C73.9568 40.9757 74 39.9191 74 31.5C74 23.0809 73.9568 22.0269 73.778 18.7202C73.1737 7.47242 65.7089 1.20525 52.2594 0.688583C48.3097 0.536167 47.0486 0.5 37 0.5ZM37 15.5815C26.5074 15.5815 18.0005 22.7089 18.0005 31.5C18.0005 40.2911 26.5074 47.4211 37 47.4211C47.4926 47.4211 55.9995 40.2937 55.9995 31.5C55.9995 22.7089 47.4926 15.5815 37 15.5815ZM37 41.8333C30.1889 41.8333 24.6667 37.2092 24.6667 31.5C24.6667 25.7934 30.1889 21.1667 37 21.1667C43.8111 21.1667 49.3333 25.7934 49.3333 31.5C49.3333 37.2092 43.8111 41.8333 37 41.8333ZM56.7518 11.2338C54.2975 11.2338 52.3088 12.9 52.3088 14.9537C52.3088 17.0075 54.2975 18.6737 56.7518 18.6737C59.2031 18.6737 61.1887 17.0075 61.1887 14.9537C61.1887 12.9 59.2031 11.2338 56.7518 11.2338Z" fill="#1E1E1E"/>
</g>
<defs>
<clipPath id="clip0_8_3184">
<rect width="74" height="62" fill="white" transform="translate(0 0.5)"/>
</clipPath>
</defs>
</svg>
