<svg width="34" height="28" viewBox="0 0 34 28" fill="none" xmlns="http://www.w3.org/2000/svg">
<path d="M30.1246 24.1906L24.033 19.174C26.0945 17.3148 27.1906 14.8649 27.0866 12.3486C26.9826 9.83234 25.6869 7.4495 23.4766 5.70999C21.2664 3.97047 18.3172 3.01246 15.2601 3.04093C12.2031 3.0694 9.28093 4.08211 7.11902 5.86234C4.95711 7.64258 3.72714 10.0489 3.69229 12.5665C3.65744 15.0841 4.82048 17.5129 6.93255 19.3333C9.04462 21.1537 11.9379 22.221 14.9934 22.3068C18.0489 22.3927 21.0239 21.4903 23.2817 19.7927L29.3734 24.8094C29.473 24.8913 29.6081 24.9374 29.749 24.9373C29.8898 24.9373 30.0248 24.8912 30.1244 24.8092C30.224 24.7271 30.28 24.6159 30.28 24.4999C30.28 24.3839 30.2241 24.2727 30.1246 24.1906ZM4.78111 12.6875C4.78111 10.9569 5.40425 9.26516 6.57174 7.82624C7.73922 6.38731 9.39861 5.26581 11.3401 4.60354C13.2815 3.94128 15.4179 3.768 17.4789 4.10562C19.5399 4.44324 21.4331 5.27659 22.919 6.5003C24.405 7.724 25.4169 9.2831 25.8269 10.9804C26.2368 12.6777 26.0264 14.4371 25.2222 16.0359C24.4181 17.6348 23.0562 19.0013 21.309 19.9628C19.5617 20.9242 17.5075 21.4374 15.4061 21.4374C12.5891 21.4348 9.88847 20.5121 7.8966 18.8717C5.90472 17.2314 4.78429 15.0073 4.78111 12.6875Z" fill="black"/>
</svg>
